<svg xmlns="http://www.w3.org/2000/svg" width="14" height="13" fill="none" xmlns:v="https://vecta.io/nano"><path d="M6.854 0l2.679.039c.692.032 1.164.141 1.578.302a3.17 3.17 0 0 1 1.152.749 3.19 3.19 0 0 1 .749 1.152c.161.414.27.886.302 1.578l.039 2.679-.039 2.679c-.033.692-.142 1.164-.302 1.578-.163.434-.418.827-.749 1.152-.325.33-.718.586-1.152.749-.414.161-.886.27-1.578.302L6.854 13c-1.766 0-1.986-.007-2.679-.039s-1.163-.142-1.578-.302a3.18 3.18 0 0 1-1.152-.749c-.331-.325-.586-.718-.749-1.152-.161-.414-.27-.886-.302-1.578L.354 6.5.393 3.821c.032-.693.141-1.163.302-1.578a3.17 3.17 0 0 1 .749-1.152C1.77.76 2.163.504 2.597.341c.415-.161.885-.27 1.578-.302L6.854 0zm0 3.25a3.25 3.25 0 0 0-3.25 3.25 3.25 3.25 0 0 0 3.25 3.25 3.25 3.25 0 0 0 3.25-3.25 3.25 3.25 0 0 0-3.25-3.25zm4.225-.163a.81.81 0 0 0-.812-.812.81.81 0 0 0-.813.813.81.81 0 0 0 .813.813.81.81 0 0 0 .813-.812zM6.854 4.55a1.95 1.95 0 0 1 1.95 1.95 1.95 1.95 0 0 1-1.95 1.95 1.95 1.95 0 0 1-1.95-1.95 1.95 1.95 0 0 1 1.95-1.95z" fill="#ccc"/></svg>