<svg xmlns="http://www.w3.org/2000/svg" width="15" height="11" fill="none" xmlns:v="https://vecta.io/nano"><path d="M14.354 1.306c-.507.224-1.044.371-1.594.437.58-.347 1.014-.893 1.221-1.536-.544.324-1.141.551-1.763.674-.418-.447-.971-.743-1.575-.843S9.42.04 8.88.328s-.968.747-1.22 1.305-.312 1.183-.172 1.778a7.88 7.88 0 0 1-5.721-2.9c-.247.424-.376.905-.376 1.396 0 .962.49 1.813 1.235 2.31-.441-.014-.872-.133-1.257-.347v.035a2.78 2.78 0 0 0 2.227 2.722c-.409.111-.838.127-1.254.048a2.78 2.78 0 0 0 2.593 1.928 5.57 5.57 0 0 1-4.109 1.15A7.85 7.85 0 0 0 5.08 11c5.106 0 7.898-4.23 7.898-7.898a8.04 8.04 0 0 0-.009-.358 5.64 5.64 0 0 0 1.385-1.437h-.001z" fill="#76a713"/></svg>